<?xml version="1.0" encoding="UTF-8"?>
<svg width="32" height="32" viewBox="0 0 32 32" xmlns="http://www.w3.org/2000/svg">
  <!-- Darker Eggplant Background -->
  <rect width="32" height="32" fill="#2a1b3d" rx="6"/>
  
  <!-- Purple Highlight Behind V -->
  <defs>
    <radialGradient id="purpleGlow" cx="50%" cy="50%" r="50%">
      <stop offset="0%" style="stop-color:#533483;stop-opacity:0.8"/>
      <stop offset="70%" style="stop-color:#533483;stop-opacity:0.3"/>
      <stop offset="100%" style="stop-color:#2a1b3d;stop-opacity:0"/>
    </radialGradient>
  </defs>
  
  <!-- Purple Glow Circle -->
  <circle cx="16" cy="16" r="9" fill="url(#purpleGlow)"/>
  
  <!-- Main V Shape with Shading -->
  <defs>
    <linearGradient id="vGradient" x1="0%" y1="0%" x2="100%" y2="100%">
      <stop offset="0%" style="stop-color:#00d4aa"/>
      <stop offset="50%" style="stop-color:#00b894"/>
      <stop offset="100%" style="stop-color:#00a085"/>
    </linearGradient>
  </defs>
  
  <!-- V with Gradient and Sharp Edges -->
  <path d="M 6 9 L 16 22 L 26 9 L 22 9 L 16 19 L 10 9 Z" fill="url(#vGradient)"/>
  
  <!-- V Edge Highlights for Sharpness -->
  <path d="M 6 9 L 16 22 L 26 9" stroke="#00d4aa" stroke-width="0.25" fill="none" stroke-linecap="round"/>
  <path d="M 6 9 L 10 9 L 16 19 L 22 9 L 26 9" stroke="#00d4aa" stroke-width="0.125" fill="none" stroke-linecap="round"/>
  
  <!-- List Elements with Subtle Shading -->
  <circle cx="12" cy="25" r="1.25" fill="#00d4aa"/>
  <circle cx="12" cy="25" r="1.1" fill="#00b894"/>
  
  <circle cx="16" cy="25" r="1.25" fill="#00d4aa"/>
  <circle cx="16" cy="25" r="1.1" fill="#00b894"/>
  
  <circle cx="20" cy="25" r="1.25" fill="#00d4aa"/>
  <circle cx="20" cy="25" r="1.1" fill="#00b894"/>
</svg>
