<?xml version="1.0" encoding="UTF-8"?>
<svg width="1024" height="1024" viewBox="0 0 1024 1024" xmlns="http://www.w3.org/2000/svg">
  <rect width="1024" height="1024" fill="#2a1b3d" rx="200"/>
  <defs>
    <radialGradient id="purpleGlow" cx="50%" cy="50%" r="50%">
      <stop offset="0%" style="stop-color:#533483;stop-opacity:0.8"/>
      <stop offset="70%" style="stop-color:#533483;stop-opacity:0.3"/>
      <stop offset="100%" style="stop-color:#2a1b3d;stop-opacity:0"/>
    </radialGradient>
    <linearGradient id="vGradient" x1="0%" y1="0%" x2="100%" y2="100%">
      <stop offset="0%" style="stop-color:#00d4aa"/>
      <stop offset="50%" style="stop-color:#00b894"/>
      <stop offset="100%" style="stop-color:#00a085"/>
    </linearGradient>
  </defs>
  <circle cx="512" cy="512" r="300" fill="url(#purpleGlow)"/>
  <path d="M 200 300 L 512 700 L 824 300 L 700 300 L 512 600 L 324 300 Z" fill="url(#vGradient)"/>
  <path d="M 200 300 L 512 700 L 824 300" stroke="#00d4aa" stroke-width="8" fill="none" stroke-linecap="round"/>
  <path d="M 200 300 L 324 300 L 512 600 L 700 300 L 824 300" stroke="#00d4aa" stroke-width="4" fill="none" stroke-linecap="round"/>
  <circle cx="400" cy="800" r="40" fill="#00d4aa"/>
  <circle cx="400" cy="800" r="35" fill="#00b894"/>
  <circle cx="512" cy="800" r="40" fill="#00d4aa"/>
  <circle cx="512" cy="800" r="35" fill="#00b894"/>
  <circle cx="624" cy="800" r="40" fill="#00d4aa"/>
  <circle cx="624" cy="800" r="35" fill="#00b894"/>
</svg>

