<svg width="48" height="48" viewBox="0 0 48 48" xmlns="http://www.w3.org/2000/svg">
  <defs>
    <linearGradient id="platformGradient" x1="0%" y1="0%" x2="100%" y2="100%">
      <stop offset="0%" style="stop-color:#533483"/>
      <stop offset="100%" style="stop-color:#00d4aa"/>
    </linearGradient>
  </defs>
  <!-- Docker whale body -->
  <ellipse cx="24" cy="28" rx="18" ry="12" fill="url(#platformGradient)" opacity="0.1"/>
  <ellipse cx="24" cy="28" rx="18" ry="12" fill="none" stroke="url(#platformGradient)" stroke-width="2"/>
  
  <!-- Docker whale tail -->
  <path d="M 6 28 Q 2 24 6 20 Q 10 24 6 28" fill="url(#platformGradient)" opacity="0.3"/>
  <path d="M 6 28 Q 2 24 6 20 Q 10 24 6 28" fill="none" stroke="url(#platformGradient)" stroke-width="2"/>
  
  <!-- Docker containers -->
  <rect x="16" y="20" width="6" height="6" rx="1" fill="url(#platformGradient)" opacity="0.4"/>
  <rect x="16" y="20" width="6" height="6" rx="1" fill="none" stroke="url(#platformGradient)" stroke-width="1.5"/>
  
  <rect x="24" y="20" width="6" height="6" rx="1" fill="url(#platformGradient)" opacity="0.4"/>
  <rect x="24" y="20" width="6" height="6" rx="1" fill="none" stroke="url(#platformGradient)" stroke-width="1.5"/>
  
  <rect x="20" y="28" width="6" height="6" rx="1" fill="url(#platformGradient)" opacity="0.4"/>
  <rect x="20" y="28" width="6" height="6" rx="1" fill="none" stroke="url(#platformGradient)" stroke-width="1.5"/>
  
  <rect x="28" y="28" width="6" height="6" rx="1" fill="url(#platformGradient)" opacity="0.4"/>
  <rect x="28" y="28" width="6" height="6" rx="1" fill="none" stroke="url(#platformGradient)" stroke-width="1.5"/>
  
  <!-- Whale eye -->
  <circle cx="32" cy="24" r="2" fill="url(#platformGradient)"/>
  <circle cx="32" cy="24" r="1" fill="white"/>
</svg>
