<svg width="48" height="48" viewBox="0 0 48 48" xmlns="http://www.w3.org/2000/svg">
  <defs>
    <linearGradient id="platformGradient" x1="0%" y1="0%" x2="100%" y2="100%">
      <stop offset="0%" style="stop-color:#533483"/>
      <stop offset="100%" style="stop-color:#00d4aa"/>
    </linearGradient>
  </defs>
  <circle cx="24" cy="24" r="20" fill="url(#platformGradient)" opacity="0.1"/>
  <circle cx="24" cy="24" r="20" fill="none" stroke="url(#platformGradient)" stroke-width="2"/>
  <path d="M 8 24 C 8 16 12 8 24 8 C 36 8 40 16 40 24 C 40 32 36 40 24 40 C 12 40 8 32 8 24 Z" fill="none" stroke="url(#platformGradient)" stroke-width="2"/>
  <path d="M 8 24 H 40" stroke="url(#platformGradient)" stroke-width="2"/>
  <path d="M 24 8 C 24 8 28 16 28 24 C 28 32 24 40 24 40" stroke="url(#platformGradient)" stroke-width="2" fill="none"/>
  <path d="M 20 8 C 20 8 16 16 16 24 C 16 32 20 40 20 40" stroke="url(#platformGradient)" stroke-width="2" fill="none"/>
  <rect x="16" y="18" width="16" height="12" rx="1" fill="url(#platformGradient)" opacity="0.2"/>
  <rect x="18" y="20" width="12" height="8" rx="1" fill="url(#platformGradient)" opacity="0.3"/>
  <circle cx="20" cy="22" r="1" fill="url(#platformGradient)"/>
  <circle cx="24" cy="22" r="1" fill="url(#platformGradient)"/>
  <circle cx="28" cy="22" r="1" fill="url(#platformGradient)"/>
</svg>
