<?xml version="1.0" encoding="UTF-8"?>
<svg width="512" height="512" viewBox="0 0 512 512" xmlns="http://www.w3.org/2000/svg">
  <!-- Darker Eggplant Background -->
  <rect width="512" height="512" fill="#2a1b3d" rx="100"/>
  
  <!-- Purple Highlight Behind V -->
  <defs>
    <radialGradient id="purpleGlow" cx="50%" cy="50%" r="50%">
      <stop offset="0%" style="stop-color:#533483;stop-opacity:0.8"/>
      <stop offset="70%" style="stop-color:#533483;stop-opacity:0.3"/>
      <stop offset="100%" style="stop-color:#2a1b3d;stop-opacity:0"/>
    </radialGradient>
  </defs>
  
  <!-- Purple Glow Circle -->
  <circle cx="256" cy="256" r="150" fill="url(#purpleGlow)"/>
  
  <!-- Main V Shape with Shading -->
  <defs>
    <linearGradient id="vGradient" x1="0%" y1="0%" x2="100%" y2="100%">
      <stop offset="0%" style="stop-color:#00d4aa"/>
      <stop offset="50%" style="stop-color:#00b894"/>
      <stop offset="100%" style="stop-color:#00a085"/>
    </linearGradient>
  </defs>
  
  <!-- V with Gradient and Sharp Edges -->
  <path d="M 100 150 L 256 350 L 412 150 L 350 150 L 256 300 L 162 150 Z" fill="url(#vGradient)"/>
  
  <!-- V Edge Highlights for Sharpness -->
  <path d="M 100 150 L 256 350 L 412 150" stroke="#00d4aa" stroke-width="4" fill="none" stroke-linecap="round"/>
  <path d="M 100 150 L 162 150 L 256 300 L 350 150 L 412 150" stroke="#00d4aa" stroke-width="2" fill="none" stroke-linecap="round"/>
  
  <!-- List Elements with Subtle Shading -->
  <circle cx="200" cy="400" r="20" fill="#00d4aa"/>
  <circle cx="200" cy="400" r="17" fill="#00b894"/>
  
  <circle cx="256" cy="400" r="20" fill="#00d4aa"/>
  <circle cx="256" cy="400" r="17" fill="#00b894"/>
  
  <circle cx="312" cy="400" r="20" fill="#00d4aa"/>
  <circle cx="312" cy="400" r="17" fill="#00b894"/>
</svg>
